<svg width="226" height="27" viewBox="0 0 226 27" fill="none" xmlns="http://www.w3.org/2000/svg">
<path d="M5.048 8.408C5.416 7.784 5.936 7.288 6.608 6.92C7.28 6.552 8.072 6.368 8.984 6.368C10.056 6.368 11.024 6.648 11.888 7.208C12.768 7.768 13.456 8.568 13.952 9.608C14.464 10.648 14.72 11.864 14.72 13.256C14.72 14.648 14.464 15.872 13.952 16.928C13.456 17.968 12.768 18.768 11.888 19.328C11.024 19.888 10.056 20.168 8.984 20.168C8.072 20.168 7.28 19.984 6.608 19.616C5.952 19.248 5.432 18.752 5.048 18.128V26.432H0.344V6.536H5.048V8.408ZM9.944 13.256C9.944 12.376 9.704 11.696 9.224 11.216C8.76 10.72 8.184 10.472 7.496 10.472C6.808 10.472 6.224 10.72 5.744 11.216C5.28 11.712 5.048 12.392 5.048 13.256C5.048 14.136 5.28 14.824 5.744 15.32C6.224 15.816 6.808 16.064 7.496 16.064C8.184 16.064 8.76 15.816 9.224 15.32C9.704 14.808 9.944 14.12 9.944 13.256ZM15.8885 13.256C15.8885 11.864 16.1365 10.648 16.6325 9.608C17.1445 8.568 17.8325 7.768 18.6965 7.208C19.5765 6.648 20.5525 6.368 21.6245 6.368C22.5525 6.368 23.3525 6.552 24.0245 6.92C24.6965 7.288 25.2165 7.784 25.5845 8.408V6.536H30.2885V20H25.5845V18.128C25.2165 18.752 24.6885 19.248 24.0005 19.616C23.3285 19.984 22.5365 20.168 21.6245 20.168C20.5525 20.168 19.5765 19.888 18.6965 19.328C17.8325 18.768 17.1445 17.968 16.6325 16.928C16.1365 15.872 15.8885 14.648 15.8885 13.256ZM25.5845 13.256C25.5845 12.392 25.3445 11.712 24.8645 11.216C24.4005 10.72 23.8245 10.472 23.1365 10.472C22.4325 10.472 21.8485 10.72 21.3845 11.216C20.9205 11.696 20.6885 12.376 20.6885 13.256C20.6885 14.12 20.9205 14.808 21.3845 15.32C21.8485 15.816 22.4325 16.064 23.1365 16.064C23.8245 16.064 24.4005 15.816 24.8645 15.32C25.3445 14.824 25.5845 14.136 25.5845 13.256ZM41.393 20L37.673 14.48V20H32.969V2.24H37.673V11.816L41.393 6.536H47.033L41.729 13.304L47.129 20H41.393ZM47.7401 13.256C47.7401 11.864 47.9881 10.648 48.4841 9.608C48.9961 8.568 49.6841 7.768 50.5481 7.208C51.4281 6.648 52.4041 6.368 53.4761 6.368C54.4041 6.368 55.2041 6.552 55.8761 6.92C56.5481 7.288 57.0681 7.784 57.4361 8.408V6.536H62.1401V20H57.4361V18.128C57.0681 18.752 56.5401 19.248 55.8521 19.616C55.1801 19.984 54.3881 20.168 53.4761 20.168C52.4041 20.168 51.4281 19.888 50.5481 19.328C49.6841 18.768 48.9961 17.968 48.4841 16.928C47.9881 15.872 47.7401 14.648 47.7401 13.256ZM57.4361 13.256C57.4361 12.392 57.1961 11.712 56.7161 11.216C56.2521 10.72 55.6761 10.472 54.9881 10.472C54.2841 10.472 53.7001 10.72 53.2361 11.216C52.7721 11.696 52.5401 12.376 52.5401 13.256C52.5401 14.12 52.7721 14.808 53.2361 15.32C53.7001 15.816 54.2841 16.064 54.9881 16.064C55.6761 16.064 56.2521 15.816 56.7161 15.32C57.1961 14.824 57.4361 14.136 57.4361 13.256ZM69.5246 8.912C70.0526 8.144 70.6926 7.536 71.4446 7.088C72.1966 6.64 73.0046 6.416 73.8686 6.416V11.432H72.5486C71.5246 11.432 70.7646 11.632 70.2686 12.032C69.7726 12.432 69.5246 13.128 69.5246 14.12V20H64.8206V6.536H69.5246V8.912ZM95.3069 3.08V20H90.6029V10.664L87.4109 20H83.4749L80.2589 10.592V20H75.5549V3.08H81.2429L85.4909 14.072L89.6429 3.08H95.3069ZM111.761 6.536V20H107.033V18.08C106.633 18.688 106.081 19.184 105.377 19.568C104.673 19.936 103.865 20.12 102.953 20.12C101.385 20.12 100.145 19.608 99.2326 18.584C98.3366 17.544 97.8886 16.136 97.8886 14.36V6.536H102.569V13.76C102.569 14.528 102.769 15.136 103.169 15.584C103.585 16.016 104.129 16.232 104.801 16.232C105.489 16.232 106.033 16.016 106.433 15.584C106.833 15.136 107.033 14.528 107.033 13.76V6.536H111.761ZM119.142 2.24V20H114.438V2.24H119.142ZM129.765 15.992V20H127.725C124.285 20 122.565 18.296 122.565 14.888V10.448H120.909V6.536H122.565V3.272H127.293V6.536H129.741V10.448H127.293V14.96C127.293 15.328 127.373 15.592 127.533 15.752C127.709 15.912 127.997 15.992 128.397 15.992H129.765ZM134.298 5.288C133.466 5.288 132.794 5.064 132.282 4.616C131.786 4.152 131.538 3.576 131.538 2.888C131.538 2.184 131.786 1.6 132.282 1.136C132.794 0.671999 133.466 0.439999 134.298 0.439999C135.114 0.439999 135.77 0.671999 136.266 1.136C136.778 1.6 137.034 2.184 137.034 2.888C137.034 3.576 136.778 4.152 136.266 4.616C135.77 5.064 135.114 5.288 134.298 5.288ZM136.626 6.536V20H131.922V6.536H136.626ZM156.897 6.416C158.593 6.416 159.921 6.928 160.881 7.952C161.857 8.976 162.345 10.376 162.345 12.152V20H157.641V12.776C157.641 12.056 157.441 11.496 157.041 11.096C156.641 10.696 156.097 10.496 155.409 10.496C154.721 10.496 154.177 10.696 153.777 11.096C153.377 11.496 153.177 12.056 153.177 12.776V20H148.473V12.776C148.473 12.056 148.273 11.496 147.873 11.096C147.489 10.696 146.953 10.496 146.265 10.496C145.561 10.496 145.009 10.696 144.609 11.096C144.209 11.496 144.009 12.056 144.009 12.776V20H139.305V6.536H144.009V8.312C144.425 7.736 144.961 7.28 145.617 6.944C146.289 6.592 147.057 6.416 147.921 6.416C148.913 6.416 149.793 6.632 150.561 7.064C151.345 7.496 151.961 8.104 152.409 8.888C152.889 8.152 153.521 7.56 154.305 7.112C155.089 6.648 155.953 6.416 156.897 6.416ZM177.786 13.112C177.786 13.48 177.762 13.848 177.714 14.216H168.81C168.858 14.952 169.058 15.504 169.41 15.872C169.778 16.224 170.242 16.4 170.802 16.4C171.586 16.4 172.146 16.048 172.482 15.344H177.498C177.29 16.272 176.882 17.104 176.274 17.84C175.682 18.56 174.93 19.128 174.018 19.544C173.106 19.96 172.098 20.168 170.994 20.168C169.666 20.168 168.482 19.888 167.442 19.328C166.418 18.768 165.61 17.968 165.018 16.928C164.442 15.888 164.154 14.664 164.154 13.256C164.154 11.848 164.442 10.632 165.018 9.608C165.594 8.568 166.394 7.768 167.418 7.208C168.458 6.648 169.65 6.368 170.994 6.368C172.322 6.368 173.498 6.64 174.522 7.184C175.546 7.728 176.346 8.512 176.922 9.536C177.498 10.544 177.786 11.736 177.786 13.112ZM172.986 11.936C172.986 11.36 172.794 10.912 172.41 10.592C172.026 10.256 171.546 10.088 170.97 10.088C170.394 10.088 169.922 10.248 169.554 10.568C169.186 10.872 168.946 11.328 168.834 11.936H172.986ZM178.943 13.256C178.943 11.864 179.191 10.648 179.687 9.608C180.199 8.568 180.895 7.768 181.775 7.208C182.655 6.648 183.631 6.368 184.703 6.368C185.567 6.368 186.335 6.552 187.007 6.92C187.695 7.272 188.231 7.76 188.615 8.384V2.24H193.343V20H188.615V18.128C188.247 18.752 187.727 19.248 187.055 19.616C186.383 19.984 185.591 20.168 184.679 20.168C183.607 20.168 182.631 19.888 181.751 19.328C180.887 18.768 180.199 17.968 179.687 16.928C179.191 15.872 178.943 14.648 178.943 13.256ZM188.639 13.256C188.639 12.392 188.399 11.712 187.919 11.216C187.455 10.72 186.879 10.472 186.191 10.472C185.487 10.472 184.903 10.72 184.439 11.216C183.975 11.696 183.743 12.376 183.743 13.256C183.743 14.12 183.975 14.808 184.439 15.32C184.903 15.816 185.487 16.064 186.191 16.064C186.879 16.064 187.455 15.816 187.919 15.32C188.399 14.824 188.639 14.136 188.639 13.256ZM198.4 5.288C197.568 5.288 196.896 5.064 196.384 4.616C195.888 4.152 195.64 3.576 195.64 2.888C195.64 2.184 195.888 1.6 196.384 1.136C196.896 0.671999 197.568 0.439999 198.4 0.439999C199.216 0.439999 199.872 0.671999 200.368 1.136C200.88 1.6 201.136 2.184 201.136 2.888C201.136 3.576 200.88 4.152 200.368 4.616C199.872 5.064 199.216 5.288 198.4 5.288ZM200.728 6.536V20H196.024V6.536H200.728ZM202.639 13.256C202.639 11.864 202.887 10.648 203.383 9.608C203.895 8.568 204.583 7.768 205.447 7.208C206.327 6.648 207.303 6.368 208.375 6.368C209.303 6.368 210.103 6.552 210.775 6.92C211.447 7.288 211.967 7.784 212.335 8.408V6.536H217.039V20H212.335V18.128C211.967 18.752 211.439 19.248 210.751 19.616C210.079 19.984 209.287 20.168 208.375 20.168C207.303 20.168 206.327 19.888 205.447 19.328C204.583 18.768 203.895 17.968 203.383 16.928C202.887 15.872 202.639 14.648 202.639 13.256ZM212.335 13.256C212.335 12.392 212.095 11.712 211.615 11.216C211.151 10.72 210.575 10.472 209.887 10.472C209.183 10.472 208.599 10.72 208.135 11.216C207.671 11.696 207.439 12.376 207.439 13.256C207.439 14.12 207.671 14.808 208.135 15.32C208.599 15.816 209.183 16.064 209.887 16.064C210.575 16.064 211.151 15.816 211.615 15.32C212.095 14.824 212.335 14.136 212.335 13.256ZM222.791 10.832C221.959 10.832 221.287 10.608 220.775 10.16C220.279 9.696 220.031 9.112 220.031 8.408C220.031 7.704 220.279 7.12 220.775 6.656C221.287 6.192 221.959 5.96 222.791 5.96C223.607 5.96 224.263 6.192 224.759 6.656C225.271 7.12 225.527 7.704 225.527 8.408C225.527 9.096 225.271 9.672 224.759 10.136C224.263 10.6 223.607 10.832 222.791 10.832ZM225.335 15.968L222.767 22.976H219.791L221.039 15.968H225.335Z" fill="#FAF9F9"/>
</svg>
